<svg xmlns="http://www.w3.org/2000/svg" xmlns:xlink="http://www.w3.org/1999/xlink" xmlns:svgjs="http://svgjs.dev/svgjs" version="1.1" viewBox="5.61 0 1497.52 550.34"><g transform="matrix(1,0,0,1,4.190057978854725,0.6704884121797363)"><svg xmlns="http://www.w3.org/2000/svg" xmlns:xlink="http://www.w3.org/1999/xlink" viewBox="0 0 396 145" data-background-color="#ffffff" preserveAspectRatio="xMidYMid meet" height="549" width="1500"><g id="tight-bounds" transform="matrix(1,0,0,1,0.28627619370286084,-0.17708710339901756)"><svg viewBox="0 0 395.52 145.35417420679804" height="145.35417420679804" width="395.52"><g><svg viewBox="0 0 668.4312421472534 245.6494519021498" height="145.35417420679804" width="395.52"><g transform="matrix(1,0,0,1,270.9336421472535,24.455696685762874)"><svg viewBox="0 0 397.4975999999999 196.73805853062404" height="196.73805853062404" width="397.4975999999999"><g id="textblocktransform"><svg viewBox="0 0 397.4975999999999 196.73805853062404" height="196.73805853062404" width="397.4975999999999" id="textblock"><g><rect width="397.4975999999999" height="9.657007882650875" x="0" y="118.46074670622517" fill="#d7dbde" opacity="1" stroke-width="0" stroke="transparent" fill-opacity="1" class="rect-yte-0" data-fill-palette-color="primary" rx="1%" id="yte-0" data-palette-color="#d7dbde"/></g><g transform="matrix(1,0,0,1,0.9887999999999693,0)"><svg viewBox="0 0 395.52 107.08469029996104" height="107.08469029996104" width="395.52"><g transform="matrix(1,0,0,1,0,0)"><svg width="395.52" viewBox="2.25 -33.55 128.34 34.75" height="107.08469029996104" data-palette-color="#d7dbde"><path d="M24.05-4.65L24.05-4.65Q24.15-6.1 24.2-7.23 24.25-8.35 24.25-9.45L24.25-9.45Q24.25-10.55 24.2-11.6 24.15-12.65 24-13.7L24-13.7 19.55-15.05 20.1-16.9Q21.8-16.8 23.8-16.75 25.8-16.7 28-16.7L28-16.7Q29.9-16.7 31.68-16.75 33.45-16.8 35.25-16.9L35.25-16.9 35.9-15.05 31.5-13.7Q31.45-12.5 31.4-11.28 31.35-10.05 31.4-8.75L31.4-8.75Q31.4-7.25 31.53-5.63 31.65-4 31.7-2.1L31.7-2.1Q28.8-1.2 25.85-0.43 22.9 0.35 18.85 0.35L18.85 0.35Q14.35 0.35 11.18-1.07 8-2.5 6.05-4.88 4.1-7.25 3.18-10.23 2.25-13.2 2.25-16.35L2.25-16.35Q2.25-19.65 3.25-22.73 4.25-25.8 6.3-28.25 8.35-30.7 11.58-32.13 14.8-33.55 19.2-33.55L19.2-33.55Q22.35-33.55 25.28-33.02 28.2-32.5 31.2-31.1L31.2-31.1Q30.7-28.8 30.25-26.55 29.8-24.3 29.45-21.95L29.45-21.95 26.1-21.95 25.1-28.55Q22.7-29.55 20.6-29.95 18.5-30.35 15.6-30.35L15.6-30.35Q12.85-28.35 11.55-25 10.25-21.65 10.25-17.25L10.25-17.25Q10.25-14.55 10.78-11.95 11.3-9.35 12.38-7.25 13.45-5.15 15.13-3.9 16.8-2.65 19.1-2.65L19.1-2.65Q20.6-2.65 21.75-3.18 22.9-3.7 24.05-4.65ZM76.65-5.2L76.65-5.2Q77.9-5.75 79.27-6.45 80.65-7.15 81.65-7.65L81.65-7.65 82.34-5.9Q80.09-4 78.32-2.33 76.55-0.65 74.59 1.2L74.59 1.2Q72.84 0.45 70.25-1.78 67.65-4 64.57-7.25 61.5-10.5 58.15-14.4L58.15-14.4Q56.7-16.1 55.17-17.85 53.65-19.6 52.6-21.45 51.55-23.3 51.55-25.35L51.55-25.35Q51.55-27.5 52.72-29.28 53.9-31.05 56.15-32.13 58.4-33.2 61.6-33.2L61.6-33.2Q63.5-33.2 66.02-32.75 68.55-32.3 71.05-31L71.05-31Q70.7-29.25 70.22-27.18 69.75-25.1 69.3-23.25L69.3-23.25 66.65-23.25 65.5-28.7Q64.25-29.85 62.95-30.25 61.65-30.65 60.15-30.65L60.15-30.65Q59.15-30 58.77-28.8 58.4-27.6 58.4-26.6L58.4-26.6Q58.4-24.85 59.45-23.23 60.5-21.6 62.35-19.68 64.2-17.75 66.59-15L66.59-15Q69.25-12.05 71.72-9.38 74.2-6.7 76.65-5.2ZM58.35-19.35L59.4-18.15Q57.6-16.7 56.75-14.73 55.9-12.75 55.9-10.7L55.9-10.7Q55.9-8.7 56.67-6.95 57.45-5.2 58.92-4.13 60.4-3.05 62.45-3.05L62.45-3.05Q65.05-3.05 67-4.28 68.95-5.5 70.27-7.53 71.59-9.55 72.25-11.98 72.9-14.4 72.9-16.75L72.9-16.75Q72.9-18.75 72.45-20.45L72.45-20.45 78.05-19.9Q76.95-12.7 74.2-8.22 71.45-3.75 67.72-1.68 64 0.4 59.85 0.4L59.85 0.4Q56.3 0.4 53.85-0.95 51.4-2.3 50.15-4.48 48.9-6.65 48.9-9.05L48.9-9.05Q48.9-11.2 49.92-13.25 50.95-15.3 53.05-16.93 55.15-18.55 58.35-19.35L58.35-19.35ZM83.25-21L83.84-17Q79.59-17.45 75.25-17.88 70.9-18.3 66.75-18.3L66.75-18.3 67.55-21 83.25-21ZM96.49 0L96.49 0 95.84-1.9 100.24-2.95Q100.34-5.75 100.39-7.83 100.44-9.9 100.47-11.73 100.49-13.55 100.49-15.6L100.49-15.6Q100.49-18.4 100.42-22.03 100.34-25.65 100.24-29.75L100.24-29.75 95.84-31.05 96.44-33Q98.04-32.9 99.99-32.85 101.94-32.8 104.24-32.8L104.24-32.8Q106.39-32.8 108.17-32.88 109.94-32.95 111.64-33L111.64-33 112.19-31.05 107.74-29.75Q107.74-26.45 107.72-24.13 107.69-21.8 107.69-19.85 107.69-17.9 107.69-15.6L107.69-15.6Q107.69-13.15 107.69-9.8 107.69-6.45 107.74-2.95L107.74-2.95 112.19-1.9 111.64 0Q108.94-0.15 104.04-0.15L104.04-0.15Q101.74-0.15 99.89-0.1 98.04-0.05 96.49 0ZM130.59-1.9L129.89 0Q126.89-0.15 124.24-0.15L124.24-0.15Q122.54-0.15 120.81-0.1 119.09-0.05 118.24-0.05L118.24-0.05Q116.89-2.4 115.74-4.3 114.59-6.2 113.49-8 112.39-9.8 111.12-11.78 109.84-13.75 108.19-16.2L108.19-16.2Q109.14-16.9 110.34-17.6 111.54-18.3 112.59-18.93 113.64-19.55 113.99-19.95L113.99-19.95Q116.04-16.7 117.84-13.9 119.64-11.1 121.52-8.45 123.39-5.8 125.54-2.95L125.54-2.95 130.59-1.9ZM112.49-15.65L112.49-15.65 108.19-16.2Q111.29-18.95 113.34-21.13 115.39-23.3 116.97-25.43 118.54-27.55 120.09-30L120.09-30 116.04-31.05 116.64-33Q118.39-32.9 119.89-32.88 121.39-32.85 123.09-32.85L123.09-32.85Q126.49-32.85 129.09-33L129.09-33 129.69-31.05 125.34-30Q121.84-26.3 118.72-22.85 115.59-19.4 112.49-15.65Z" opacity="1" transform="matrix(1,0,0,1,0,0)" fill="#d7dbde" class="wordmark-text-0" data-fill-palette-color="primary" id="text-0"/></svg></g></svg></g><g transform="matrix(1,0,0,1,0,139.49381099514017)"><svg viewBox="0 0 232.20979199999996 57.24424753548387" height="57.24424753548387" width="232.20979199999996"><g transform="matrix(1,0,0,1,0,0)"><svg width="232.20979199999996" viewBox="0.55 -34.85 147.23 36.300000000000004" height="57.24424753548387" data-palette-color="#d7dbde"><path d="M18.2-15L18.2-15 18.1-8.6Q18.1-1.95 19.55-0.6L19.55-0.6Q19.75-0.4 19.75-0.15L19.75-0.15Q19.75 0.6 16.53 0.6 13.3 0.6 13.1-1.3L13.1-1.3Q13.05-1.75 13.05-3.15L13.05-3.15 13.25-11.15Q13.25-11.5 12.85-11.5L12.85-11.5Q10.45-11.5 8.35-10.15 6.25-8.8 6.25-6.7L6.25-6.7Q6.25-5.6 6.85-4.85 7.45-4.1 8.33-4.1 9.2-4.1 9.78-4.45 10.35-4.8 10.45-4.85L10.45-4.85Q11.3-4.75 11.3-3.08 11.3-1.4 9.75-0.38 8.2 0.65 6.5 0.65 4.8 0.65 3.58 0.05 2.35-0.55 1.8-1.3 1.25-2.05 0.9-3L0.9-3Q0.55-4.15 0.55-5L0.55-5Q0.55-8.5 2.75-10.6 4.95-12.7 8.4-13.6L8.4-13.6Q12.95-14.5 13.15-15.25L13.15-15.25Q13.3-15.8 13.3-17.1L13.3-17.1Q13.3-19.75 10.6-19.75L10.6-19.75Q9.45-19.75 8.55-19.03 7.65-18.3 7.65-17.2L7.65-17.2 7.95-16Q7.85-15.15 6.15-15L6.15-15 5.6-14.95Q4.1-14.95 3.23-15.7 2.35-16.45 2.35-17.7L2.35-17.7Q2.35-18.5 2.88-19.48 3.4-20.45 4.2-21.05 5-21.65 6.68-22.13 8.35-22.6 9.9-22.6 11.45-22.6 12.3-22.5 13.15-22.4 14.63-22.03 16.1-21.65 17.07-20.6 18.05-19.55 18.13-18.38 18.2-17.2 18.2-15ZM31.25-22.45L31.25-22.45Q32.15-22.45 32.87-22.23 33.6-22 33.65-22L33.65-22 33.95-22.25 33.75-27.7Q33.65-29.1 33.15-30.1 32.65-31.1 32.25-31.4L32.25-31.4 31.8-31.65Q31.5-31.85 31.5-32.1L31.5-32.1Q31.5-32.85 33.82-33.85 36.15-34.85 37.45-34.85 38.75-34.85 38.85-34.3L38.85-34.3Q39.1-32.6 39.1-27.83 39.1-23.05 38.87-18.45 38.65-13.85 38.65-8.03 38.65-2.2 39.4-0.7L39.4-0.7Q39.6-0.35 39.6-0.05L39.6-0.05Q39.6 0.7 37.45 0.7L37.45 0.7Q33.35 0.7 33.35-1.25L33.35-1.25Q33.25-2.05 33.25-3.73 33.25-5.4 33.57-9.98 33.9-14.55 33.9-17.03 33.9-19.5 31.42-19.5 28.95-19.5 27.65-16.6 26.35-13.7 26.35-10.8L26.35-10.8Q26.35-4.65 29.45-4.65L29.45-4.65Q29.9-4.65 30.32-4.83 30.75-5 30.85-5L30.85-5Q31.25-5 31.47-4.5 31.7-4 31.7-3.5L31.7-3.5Q31.7-1.8 30.35-0.63 29 0.55 27.05 0.55L27.05 0.55Q24.05 0.55 22.52-2.08 21-4.7 21-8.6L21-8.6Q21-13.55 23.35-17.8L23.35-17.8Q24.55-19.9 26.6-21.18 28.65-22.45 31.25-22.45ZM53.12-21.6Q55.24-22.65 57.34-22.65 59.45-22.65 59.45-18.3L59.45-18.3Q59.45-15.1 58.27-11.8 57.09-8.5 55.34-6L55.34-6Q51.74-0.75 48.84 1L48.84 1Q48.14 1.4 47.8 1.4 47.45 1.4 47.07 0.65 46.7-0.1 45.92-2.65 45.14-5.2 44.64-7.2L44.64-7.2 44.2-9.25Q43.2-13.65 42.24-16.28 41.3-18.9 40.84-19.3L40.84-19.3 40.34-19.75Q39.84-20 39.84-20.35L39.84-20.35 40.09-20.8Q40.74-21.4 42.27-22.03 43.8-22.65 45.64-22.65L45.64-22.65Q46.49-22.65 46.7-21.7L46.7-21.7Q47.45-19.4 47.99-16.3 48.55-13.2 49.47-9.3 50.39-5.4 50.99-5.35L50.99-5.35Q51.3-5.35 51.67-5.8 52.05-6.25 52.57-7 53.09-7.75 53.87-9.9 54.64-12.05 54.64-13.58 54.64-15.1 54.52-15.93 54.39-16.75 53.64-17.85 52.89-18.95 51.95-19.13 50.99-19.3 50.99-19.75L50.99-19.75Q50.99-20.55 53.12-21.6ZM66.09-18.85L66.09-18.85Q64.79-18.8 64.22-18.78 63.64-18.75 63.64-19.05 63.64-19.35 63.94-19.65L63.94-19.65Q67.14-22.6 74.74-22.6L74.74-22.6Q77.34-22.6 78.84-22.15L78.84-22.15 79.34-22Q79.94-21.75 79.94-21.45L79.94-21.45Q79.94-21.2 79.59-21.05L79.59-21.05Q78.24-20.65 76.99-19.78 75.74-18.9 75.74-18.55L75.74-18.55 76.04-18.2Q77.64-17.3 78.52-15.35 79.39-13.4 79.49-11.9L79.49-11.9 79.59-10.35Q79.59-5.4 76.84-2.2 74.09 1 69.34 1L69.34 1Q66.94 1 65.19 0.15 63.44-0.7 62.62-1.78 61.79-2.85 61.29-4.2L61.29-4.2Q60.69-6.05 60.69-8.03 60.69-10 61.37-12 62.04-14 62.92-14.95 63.79-15.9 64.89-16.5L64.89-16.5Q66.29-17.25 67.14-17.25 67.99-17.25 67.99-16.9L67.99-16.9 67.69-16.4Q66.59-15.1 66.12-13 65.64-10.9 65.64-9.28 65.64-7.65 66.04-6.05 66.44-4.45 66.94-3.68 67.44-2.9 68.09-2.5L68.09-2.5Q69.04-1.9 70.09-1.9 71.14-1.9 72.14-2.73 73.14-3.55 73.59-4.9L73.59-4.9Q74.49-7.4 74.49-10.05L74.49-10.05Q74.49-14.25 72.37-16.55 70.24-18.85 66.09-18.85ZM98.54-5.75L98.54-5.75Q98.54-2.9 96.27-1.03 93.99 0.85 90.84 0.85L90.84 0.85Q86.24 0.85 84.09-1.93 81.94-4.7 81.94-9.45L81.94-9.45Q81.94-14.5 84.19-18.4L84.19-18.4Q85.29-20.4 87.34-21.55 89.39-22.7 92.14-22.7L92.14-22.7Q96.29-22.7 97.99-19.9L97.99-19.9Q98.69-18.75 98.69-17.2L98.69-17.2Q98.69-14.8 96.69-13.6L96.69-13.6Q95.89-13.15 95.22-13.15 94.54-13.15 94.11-13.23 93.69-13.3 92.99-13.9 92.29-14.5 92.29-15.55L92.29-15.55Q92.34-16.1 93.14-16.45L93.14-16.45Q93.89-16.9 93.89-18.05L93.89-18.05Q93.89-20 91.49-20L91.49-20Q90.89-20 90.06-19.48 89.24-18.95 88.69-18.13 88.14-17.3 87.66-15.53 87.19-13.75 87.19-12.13 87.19-10.5 87.31-9.68 87.44-8.85 87.86-7.43 88.29-6 89.47-5.1 90.64-4.2 92.39-4.2L92.39-4.2Q94.49-4.2 96.09-5.95L96.09-5.95Q96.74-6.65 97.14-7.65L97.14-7.65Q97.34-8.05 97.64-8.05L97.64-8.05Q98.09-8.05 98.31-7.23 98.54-6.4 98.54-5.75ZM117.89-15L117.89-15 117.79-8.6Q117.79-1.95 119.24-0.6L119.24-0.6Q119.44-0.4 119.44-0.15L119.44-0.15Q119.44 0.6 116.21 0.6 112.99 0.6 112.79-1.3L112.79-1.3Q112.74-1.75 112.74-3.15L112.74-3.15 112.94-11.15Q112.94-11.5 112.54-11.5L112.54-11.5Q110.14-11.5 108.04-10.15 105.94-8.8 105.94-6.7L105.94-6.7Q105.94-5.6 106.54-4.85 107.14-4.1 108.01-4.1 108.89-4.1 109.46-4.45 110.04-4.8 110.14-4.85L110.14-4.85Q110.99-4.75 110.99-3.08 110.99-1.4 109.44-0.38 107.89 0.65 106.19 0.65 104.49 0.65 103.26 0.05 102.04-0.55 101.49-1.3 100.94-2.05 100.59-3L100.59-3Q100.24-4.15 100.24-5L100.24-5Q100.24-8.5 102.44-10.6 104.64-12.7 108.09-13.6L108.09-13.6Q112.64-14.5 112.84-15.25L112.84-15.25Q112.99-15.8 112.99-17.1L112.99-17.1Q112.99-19.75 110.29-19.75L110.29-19.75Q109.14-19.75 108.24-19.03 107.34-18.3 107.34-17.2L107.34-17.2 107.64-16Q107.54-15.15 105.84-15L105.84-15 105.29-14.95Q103.79-14.95 102.91-15.7 102.04-16.45 102.04-17.7L102.04-17.7Q102.04-18.5 102.56-19.48 103.09-20.45 103.89-21.05 104.69-21.65 106.36-22.13 108.04-22.6 109.59-22.6 111.14-22.6 111.99-22.5 112.84-22.4 114.31-22.03 115.79-21.65 116.76-20.6 117.74-19.55 117.81-18.38 117.89-17.2 117.89-15ZM120.19-19.5L120.19-19.5 120.34-21.5Q120.39-21.95 121.03-21.95L121.03-21.95 122.78-21.95 122.59-25.95 122.59-26.15Q122.59-27.3 124.34-28.35 126.09-29.4 127.53-29.4L127.53-29.4Q127.98-29.4 127.98-29L127.98-29 127.98-28.95Q127.78-27.6 127.59-22L127.59-22Q129.78-22 130.38-22.1 130.99-22.2 131.03-22.2L131.03-22.2Q131.38-22.2 131.38-21.6 131.38-21 130.84-20.08 130.28-19.15 129.63-19.1L129.63-19.1 127.53-19.1Q127.48-17.4 127.48-13.38 127.48-9.35 127.56-6.75 127.64-4.15 127.73-2.83 127.84-1.5 127.96-0.7 128.09 0.1 128.16 0.45 128.24 0.8 128.24 0.9L128.24 0.9Q128.24 1.4 127.59 1.45L127.59 1.45Q125.64 1.45 123.71 0.9 121.78 0.35 121.78-1L121.78-1Q122.84-9.4 122.84-19.05L122.84-19.05Q121.48-19.05 120.78-18.95L120.78-18.95 120.73-18.95Q120.28-18.95 120.19-19.5ZM136.38-12.7L136.38-12.7 136.43-11.45Q136.43-11.15 136.83-11.15L136.83-11.15Q138.43-11.3 139.63-11.98 140.83-12.65 141.43-13.5L141.43-13.5Q142.63-15.35 142.73-16.7L142.73-16.7 142.78-17.3Q142.78-20 140.63-20L140.63-20Q139.03-20 138.03-18.6L138.03-18.6Q136.38-16.4 136.38-12.7ZM147.28-6.05L147.28-6.05Q147.28-4.15 146.51-2.73 145.73-1.3 144.76-0.63 143.78 0.05 142.48 0.45L142.48 0.45Q140.83 0.95 139.33 0.95L139.33 0.95Q135.13 0.95 133.13-2.2 131.13-5.35 131.13-10.23 131.13-15.1 133.61-18.9 136.08-22.7 141.03-22.7L141.03-22.7Q145.53-22.7 147.13-19.55L147.13-19.55Q147.78-18.35 147.78-17.28 147.78-16.2 147.68-15.58 147.58-14.95 146.98-13.7 146.38-12.45 145.38-11.45 144.38-10.45 142.23-9.55 140.08-8.65 137.18-8.35L137.18-8.35Q136.78-8.35 136.78-8L136.78-8Q136.78-7.55 137.11-6.68 137.43-5.8 137.83-5.2L137.83-5.2Q138.93-3.8 141.08-3.8L141.08-3.8Q143.23-3.8 144.73-5.2L144.73-5.2Q145.53-5.95 146.03-7.05L146.03-7.05Q146.23-7.45 146.56-7.45 146.88-7.45 147.08-6.9 147.28-6.35 147.28-6.05Z" opacity="1" transform="matrix(1,0,0,1,0,0)" fill="#d7dbde" class="slogan-text-1" data-fill-palette-color="secondary" id="text-1"/></svg></g></svg></g></svg></g></svg></g><g><svg viewBox="0 0 245.65351679999995 245.6494519021498" height="245.6494519021498" width="245.65351679999995"><g><svg xmlns="http://www.w3.org/2000/svg" xmlns:xlink="http://www.w3.org/1999/xlink" version="1.1" x="0" y="0" viewBox="0.9999819668332154 1 62.00102594841861 62" style="enable-background:new 0 0 64 64;" xml:space="preserve" height="245.6494519021498" width="245.65351679999995" class="icon-icon-0" data-fill-palette-color="accent" id="icon-0"><g fill="#6a6362" data-fill-palette-color="accent"><path d="M36 5H34C34 6.103 33.103 7 32 7H28V9H32C34.206 9 36 7.206 36 5" fill="#6a6362" data-fill-palette-color="accent"/><path d="M32 53C30.346 53 29 54.346 29 56S30.346 59 32 59 35 57.654 35 56 33.654 53 32 53M32 57A1 1 0 1 1 32 55 1 1 0 0 1 32 57" fill="#6a6362" data-fill-palette-color="accent"/><path d="M32 45C30.346 45 29 46.346 29 48S30.346 51 32 51 35 49.654 35 48 33.654 45 32 45M32 49A1 1 0 1 1 32 47 1 1 0 0 1 32 49" fill="#6a6362" data-fill-palette-color="accent"/><path d="M62.815 50.197L56.027 25.591A6.27 6.27 0 0 0 50.169 21.002L45.022 19.286A7.96 7.96 0 0 0 49 12.396C49 12.069 48.967 11.739 48.902 11.415L47.22 3H51V1H13V3H16.78L15.097 11.415A5 5 0 0 0 15 12.396 7.96 7.96 0 0 0 18.978 19.286L13.831 21.002A6.27 6.27 0 0 0 7.973 25.591L1.185 50.196A5 5 0 0 0 1 51.557C1 52.713 1.397 53.848 2.12 54.752L4.619 57.874A2.98 2.98 0 0 0 6.961 59H10.52L9.806 63H54.195L53.481 59H57.04C57.956 59 58.81 58.59 59.383 57.874L61.881 54.751A5.13 5.13 0 0 0 63.001 51.557 5 5 0 0 0 62.815 50.197M48.701 22.621A28.8 28.8 0 0 0 47 32.385V33H40.77L36.889 24.684 39 25.388V19.388zM27.162 17.573L28.187 13.986C28.284 13.99 28.381 14 28.479 14H35.52C35.619 14 35.715 13.99 35.813 13.986L36.838 17.573 32 20.798zM29.744 21.698L27 22.612V19.868zM37 19.868V22.612L34.256 21.698zM42.913 3H45.18L46.941 11.808C46.98 12.002 47 12.2 47 12.396A5.97 5.97 0 0 1 45 16.847V12H43V18.055L42.269 18.368 41 17.946V14H39V17.279L38.816 17.218 37.789 13.622A6.96 6.96 0 0 0 42.492 7.634zM40.905 3L40.5 7.452A4.976 4.976 0 0 1 35.521 12H28.48A4.975 4.975 0 0 1 23.501 7.452L23.095 3zM17 12.396C17 12.2 17.02 12.001 17.059 11.807L18.82 3H21.087L21.508 7.634A6.96 6.96 0 0 0 26.211 13.622L25.184 17.218 25 17.279V14H23V17.946L21.731 18.369 21 18.055V12H19V16.848A5.97 5.97 0 0 1 17 12.396M25 19.388V25.388L27.111 24.684 23.23 33H16.995L17 32.385C17 29.038 16.424 25.759 15.299 22.621zM6.961 57A1 1 0 0 1 6.181 56.624L3.683 53.503A3.13 3.13 0 0 1 3.112 50.729L9.9 26.122A4.26 4.26 0 0 1 13.327 23.056 26.8 26.8 0 0 1 15 32.385V33.911L10.877 57zM12.194 61L16.837 35H18.846L15.132 61zM20.076 61H17.153L20.867 35H22.296L21.388 36.945A4.2 4.2 0 0 0 21 38.697C21 39.517 21.239 40.298 21.679 40.967zM25 61H22.083L23.527 42.942 24.823 44.238C24.877 44.292 24.941 44.333 24.999 44.382V61zM26.238 42.824L23.628 40.214A2.15 2.15 0 0 1 23.201 37.791L29.724 23.812 30.714 23.482 27.255 42.506C27.176 42.948 26.558 43.141 26.238 42.824M37 61H27V44.97A2.59 2.59 0 0 0 29.223 42.863L32 27.588 34.777 42.864A2.6 2.6 0 0 0 37 44.971zM36.744 42.506L33.285 23.482 34.275 23.812 40.798 37.791A2.13 2.13 0 0 1 40.372 40.214L37.762 42.824C37.443 43.14 36.826 42.948 36.744 42.506M39 61V44.382C39.058 44.333 39.122 44.292 39.176 44.238L40.472 42.942 41.917 61zM43.924 61L42.322 40.968C42.762 40.299 43.001 39.517 43.001 38.698A4.2 4.2 0 0 0 42.612 36.946L41.704 35H43.133L46.847 61zM48.868 61L45.154 35H47.179L51.807 61zM60.317 53.502L57.82 56.624A1 1 0 0 1 57.039 57H53.123L49 33.911V32.385C49 29.184 49.567 26.051 50.673 23.057A4.27 4.27 0 0 1 54.1 26.123L60.888 50.73A3.12 3.12 0 0 1 60.317 53.502" fill="#6a6362" data-fill-palette-color="accent"/></g></svg></g></svg></g></svg></g><defs/></svg><rect width="395.52" height="145.35417420679804" fill="none" stroke="none" visibility="hidden"/></g></svg></g></svg>